<svg width="1137" height="1183" viewBox="0 0 1137 1183" fill="none" xmlns="http://www.w3.org/2000/svg">
<path fill-rule="evenodd" clip-rule="evenodd" d="M1136.33 495.211V495.211L1136.38 502.027L1135.94 508.834L1135 515.617L1133.57 522.36L1131.66 529.047L1129.28 535.664L1126.44 542.196L1123.15 548.632L1119.44 554.956L1115.32 561.159L1110.82 567.23L1105.95 573.159L1100.73 578.937L1095.2 584.559L1089.38 590.017L1083.29 595.308L1076.97 600.429L1070.44 605.378L1063.73 610.153L1056.87 614.757L1049.88 619.191L1042.8 623.458L1035.64 627.561L1028.44 631.507L1021.21 635.3L1013.98 638.947L1006.78 642.456L999.615 645.835L992.51 649.09L985.479 652.231L978.536 655.265L971.694 658.2L964.964 661.046L958.356 663.812L951.881 666.507L945.549 669.139L939.366 671.72L933.341 674.258L927.478 676.763L921.784 679.244L916.261 681.711L910.914 684.174L905.746 686.641L900.757 689.122L895.95 691.627L891.324 694.163L886.88 696.739L882.617 699.365L878.532 702.048L874.625 704.797L870.891 707.619L867.329 710.521L863.934 713.511L860.701 716.594L857.626 719.779L854.702 723.069L851.925 726.47L849.287 729.988L846.781 733.626L844.399 737.388L842.135 741.276L839.98 745.295L837.924 749.446L835.961 753.729L834.079 758.147L832.271 762.699L830.526 767.384L828.836 772.203L827.19 777.154L825.58 782.235L823.995 787.443L822.425 792.777L820.863 798.231L819.298 803.804L817.721 809.49L816.124 815.285L814.497 821.185L812.834 827.185L811.125 833.28L809.363 839.465L807.541 845.733L805.651 852.08L803.688 858.501L801.646 864.988L799.517 871.538L797.298 878.144L794.983 884.802L792.568 891.505L790.047 898.249L787.418 905.028L784.677 911.837L781.82 918.671L778.844 925.525L775.747 932.394L772.526 939.273L769.177 946.156L765.7 953.038L762.092 959.913L758.35 966.776L754.473 973.619L750.46 980.439L746.309 987.227L742.018 993.977L737.588 1000.69L733.018 1007.35L728.309 1013.96L723.461 1020.52L718.475 1027.03L713.353 1033.47L708.094 1039.87L702.701 1046.2L697.173 1052.47L691.513 1058.68L685.72 1064.83L679.795 1070.9L673.739 1076.9L667.552 1082.82L661.235 1088.66L654.789 1094.4L648.214 1100.04L641.511 1105.56L634.682 1110.97L627.73 1116.26L620.655 1121.4L613.461 1126.41L606.151 1131.26L598.727 1135.94L591.193 1140.46L583.553 1144.79L575.811 1148.93L567.972 1152.88L560.041 1156.61L552.023 1160.12L543.925 1163.41L535.752 1166.46L527.51 1169.27L519.208 1171.83L510.852 1174.13L502.449 1176.16L494.008 1177.92L485.536 1179.41L477.041 1180.6L468.533 1181.51L460.019 1182.13L451.509 1182.44L443.012 1182.46L434.537 1182.16L426.093 1181.56L417.689 1180.65L409.335 1179.43L401.04 1177.9L392.814 1176.05L384.665 1173.89L376.603 1171.42L368.637 1168.65L360.776 1165.56L353.027 1162.18L345.401 1158.5L337.904 1154.52L330.545 1150.25L323.331 1145.7L316.269 1140.87L309.366 1135.77L302.628 1130.41L296.062 1124.8L289.673 1118.94L283.465 1112.84L277.443 1106.52L271.612 1099.97L265.974 1093.22L260.533 1086.28L255.291 1079.14L250.251 1071.83L245.413 1064.36L240.778 1056.73L236.347 1048.96L232.12 1041.06L228.097 1033.05L224.277 1024.92L220.657 1016.69L217.238 1008.38L214.016 999.996L210.99 991.544L208.156 983.035L205.512 974.482L203.055 965.892L200.781 957.275L198.687 948.64L196.768 939.996L195.02 931.352L193.438 922.716L192.017 914.096L190.752 905.501L189.636 896.938L188.664 888.415L187.829 879.94L187.123 871.52L186.54 863.163L186.071 854.875L185.707 846.665L185.439 838.539L185.257 830.504L185.151 822.568L185.108 814.738L185.115 807.02L185.16 799.422L185.228 791.951L185.306 784.61L185.383 777.406L185.445 770.34L185.479 763.415L185.476 756.633L185.423 749.993L185.31 743.497L185.127 737.143L184.864 730.929L184.513 724.852L184.067 718.909L183.517 713.097L182.857 707.411L182.083 701.845L181.188 696.394L180.17 691.052L179.025 685.812L177.75 680.668L176.345 675.611L174.808 670.636L173.14 665.733L171.34 660.896L169.412 656.116L167.357 651.386L165.177 646.698L162.876 642.043L160.457 637.415L157.926 632.806L155.286 628.208L152.542 623.614L149.701 619.018L146.768 614.412L143.748 609.791L140.647 605.148L137.472 600.478L134.229 595.775L130.923 591.034L127.562 586.25L124.15 581.42L120.695 576.538L117.201 571.602L113.675 566.606L110.123 561.549L106.549 556.428L102.959 551.239L99.3576 545.98L95.7506 540.649L92.1423 535.244L88.5374 529.764L84.9403 524.206L81.3556 518.569L77.7874 512.852L74.2401 507.054L70.7178 501.174L67.2249 495.211L63.7653 489.165L60.3434 483.035L56.9635 476.821L53.6297 470.523L50.3463 464.14L47.1178 457.673L43.9485 451.123L40.8426 444.49L37.8044 437.774L34.8379 430.976L31.9474 424.097L29.137 417.139L26.4112 410.102L23.7746 402.988L21.2319 395.799L18.7887 388.537L16.4514 381.204L14.2276 373.803L12.1256 366.338L10.1545 358.812L8.32393 351.232L6.64436 343.601L5.12655 335.926L3.78169 328.213L2.62127 320.47L1.65702 312.705L0.900816 304.926L0.364616 297.142L0.0603776 289.365L0 281.604L0.195155 273.87L0.656797 266.177L1.39491 258.535L2.41842 250.957L3.73516 243.456L5.35178 236.044L7.27362 228.734L9.50465 221.538L12.0476 214.468L14.9037 207.536L18.0732 200.754L21.5551 194.133L25.347 187.684L29.4456 181.416L33.8463 175.341L38.5434 169.466L43.5304 163.8L48.7995 158.352L54.342 153.127L60.1483 148.133L66.208 143.374L72.5097 138.855L79.0413 134.58L85.7902 130.55L92.7427 126.768L99.8851 123.234L107.203 119.948L114.681 116.908L122.304 114.113L130.057 111.557L137.924 109.238L145.89 107.149L153.938 105.285L162.053 103.638L170.221 102.201L178.424 100.964L186.65 99.9193L194.883 99.0555L203.109 98.3622L211.315 97.8283L219.489 97.4424L227.619 97.1923L235.692 97.0659L243.699 97.0508L251.63 97.1345L259.477 97.3045L267.23 97.5484L274.884 97.854L282.432 98.2091L289.869 98.6021L297.191 99.0217L304.395 99.4572L311.477 99.8982L318.437 100.335L325.274 100.759L331.988 101.161L338.58 101.535L345.051 101.873L351.404 102.169L357.641 102.419L363.767 102.618L369.785 102.764L375.699 102.853L381.514 102.884L387.236 102.856L392.87 102.77L398.42 102.626L403.894 102.426L409.296 102.173L414.632 101.869L419.909 101.519L425.131 101.127L430.304 100.697L435.434 100.234L440.523 99.7411L445.578 99.223L450.601 98.6824L455.595 98.1219L460.565 97.5432L465.511 96.9477L470.438 96.3355L475.346 95.7061L480.238 95.058L485.116 94.3885L489.98 93.6939L494.833 92.9691L499.676 92.2076L504.511 91.4018L509.339 90.5433L514.163 89.6238L518.985 88.6354L523.809 87.5705L528.637 86.4221L533.475 85.1838L538.325 83.85L543.193 82.4159L548.084 80.8778L553.002 79.2326L557.952 77.4782L562.94 75.6134L567.972 73.6377L573.052 71.5518L578.186 69.3574L583.38 67.057L588.638 64.6542L593.966 62.1536L599.369 59.561L604.85 56.8832L610.414 54.1279L616.064 51.3041L621.804 48.4218L627.636 45.4917L633.562 42.526L639.583 39.5375L645.701 36.54L651.915 33.5481L658.223 30.5773L664.625 27.6436L671.117 24.7637L677.697 21.9549L684.358 19.2348L691.097 16.6213L697.907 14.1326L704.781 11.7869L711.71 9.60233L718.686 7.59698L725.698 5.78856L732.737 4.1944L739.79 2.8313L746.845 1.7154L753.891 0.862068L760.912 0.285776L767.896 0L774.829 0.0171103L781.695 0.348271L788.481 1.00335L795.17 1.99084L801.749 3.31779L808.202 4.98971L814.514 7.01058L820.672 9.38276L826.662 12.107L832.47 15.1823L838.083 18.6061L843.49 22.3742L848.679 26.4806L853.641 30.9181L858.365 35.6775L862.845 40.7483L867.073 46.1187L871.044 51.7753L874.752 57.7036L878.196 63.888L881.374 70.3118L884.286 76.9574L886.932 83.8063L889.316 90.8392L891.442 98.0363L893.315 105.377L894.943 112.841L896.336 120.406L897.504 128.049L898.461 135.749L899.222 143.481L899.805 151.221L900.227 158.948L900.509 166.637L900.672 174.268L900.74 181.819L900.734 189.27L900.679 196.602L900.599 203.799L900.518 210.845L900.46 217.727L900.448 224.434L900.505 230.956L900.653 237.285L900.914 243.416L901.31 249.343L901.862 255.064L902.589 260.577L903.512 265.882L904.647 270.981L906.012 275.877L907.621 280.576L909.489 285.083L911.626 289.408L914.043 293.558L916.749 297.545L919.75 301.379L923.051 305.075L926.653 308.645L930.558 312.104L934.763 315.467L939.265 318.75L944.058 321.969L949.134 325.141L954.483 328.283L960.093 331.41L965.949 334.541L972.036 337.691L978.336 340.878L984.828 344.116L991.492 347.422L998.305 350.809L1005.24 354.292L1012.28 357.884L1019.38 361.595L1026.53 365.439L1033.69 369.423L1040.84 373.557L1047.94 377.848L1054.97 382.301L1061.88 386.921L1068.66 391.711L1075.27 396.672L1081.68 401.805L1087.86 407.107L1093.78 412.577L1099.42 418.209L1104.74 423.999L1109.72 429.939L1114.33 436.02L1118.56 442.233L1122.37 448.567L1125.76 455.011L1128.71 461.552L1131.2 468.176L1133.21 474.869L1134.74 481.616L1135.79 488.402L1136.33 495.211" fill="#FEE481"/>
</svg>
