<svg width="3289" height="2772" viewBox="0 0 3289 2772" fill="none" xmlns="http://www.w3.org/2000/svg">
<path fill-rule="evenodd" clip-rule="evenodd" d="M1224.27 2544.21L1212.64 2539.65L1200.98 2535.14L1189.29 2530.66L1177.57 2526.2L1165.83 2521.75L1154.06 2517.31L1142.27 2512.86L1130.45 2508.39L1118.62 2503.89L1106.78 2499.34L1094.93 2494.74L1083.08 2490.07L1071.22 2485.33L1059.37 2480.5L1047.54 2475.58L1035.72 2470.55L1023.92 2465.42L1012.14 2460.17L1000.4 2454.81L988.683 2449.32L977.005 2443.7L965.365 2437.96L953.764 2432.09L942.203 2426.1L930.68 2419.98L919.195 2413.75L907.745 2407.4L896.327 2400.94L884.938 2394.37L873.575 2387.71L862.233 2380.94L850.909 2374.09L839.598 2367.15L828.297 2360.13L817.001 2353.02L805.705 2345.84L794.406 2338.59L783.098 2331.26L771.775 2323.87L760.432 2316.42L749.063 2308.91L737.661 2301.33L726.222 2293.71L714.74 2286.02L703.209 2278.29L691.626 2270.5L679.987 2262.66L668.288 2254.76L656.527 2246.8L644.701 2238.78L632.81 2230.7L620.853 2222.55L608.83 2214.33L596.744 2206.04L584.595 2197.66L572.386 2189.2L560.12 2180.64L547.801 2171.98L535.435 2163.22L523.026 2154.35L510.58 2145.36L498.104 2136.25L485.604 2127.01L473.087 2117.63L460.563 2108.12L448.037 2098.45L435.521 2088.63L423.021 2078.66L410.547 2068.52L398.108 2058.21L385.714 2047.73L373.373 2037.08L361.096 2026.25L348.893 2015.23L336.772 2004.03L324.745 1992.64L312.819 1981.06L301.006 1969.29L289.315 1957.32L277.756 1945.16L266.337 1932.81L255.068 1920.26L243.959 1907.51L233.019 1894.57L222.256 1881.44L211.679 1868.12L201.298 1854.6L191.119 1840.9L181.152 1827L171.405 1812.93L161.884 1798.67L152.598 1784.24L143.553 1769.63L134.756 1754.84L126.214 1739.9L117.932 1724.78L109.917 1709.51L102.173 1694.09L94.7063 1678.52L87.5194 1662.8L80.6173 1646.95L74.0031 1630.96L67.6794 1614.84L61.6487 1598.6L55.9124 1582.25L50.4721 1565.78L45.3274 1549.21L40.4794 1532.54L35.9261 1515.78L31.6666 1498.93L27.6994 1481.99L24.0211 1464.99L20.6293 1447.91L17.5199 1430.76L14.689 1413.55L12.1313 1396.29L9.84285 1378.98L7.81735 1361.62L6.05027 1344.22L4.5351 1326.78L3.26671 1309.3L2.24013 1291.8L1.45193 1274.26L0.901629 1256.7L0.591689 1239.12L0.525965 1221.53L0.710599 1203.92L1.15468 1186.3L1.86782 1168.69L2.86217 1151.08L4.15165 1133.48L5.75108 1115.91L7.67668 1098.36L9.94684 1080.85L12.5808 1063.4L15.5982 1046.01L19.0193 1028.69L22.8629 1011.47L27.1477 994.349L31.8906 977.351L37.1074 960.488L42.8125 943.778L49.0191 927.236L55.739 910.88L62.9817 894.726L70.7559 878.792L79.0681 863.094L87.9235 847.649L97.3252 832.475L107.274 817.588L117.771 803.005L128.811 788.739L140.392 774.808L152.507 761.224L165.146 748.001L178.301 735.153L191.959 722.69L206.106 710.623L220.726 698.962L235.801 687.713L251.313 676.883L267.239 666.478L283.557 656.501L300.244 646.955L317.275 637.838L334.621 629.151L352.257 620.89L370.152 613.051L388.279 605.627L406.607 598.61L425.104 591.99L443.74 585.756L462.485 579.895L481.306 574.392L500.172 569.232L519.053 564.396L537.918 559.865L556.737 555.62L575.481 551.639L594.121 547.899L612.63 544.377L630.982 541.048L649.151 537.888L667.114 534.871L684.849 531.97L702.335 529.159L719.554 526.411L736.487 523.701L753.119 521L769.438 518.283L785.43 515.523L801.086 512.696L816.399 509.776L831.362 506.739L845.971 503.562L860.225 500.222L874.122 496.7L887.665 492.974L900.856 489.027L913.702 484.841L926.209 480.401L938.385 475.693L950.241 470.704L961.788 465.424L973.037 459.845L984.005 453.958L994.705 447.758L1005.15 441.243L1015.37 434.41L1025.37 427.26L1035.17 419.794L1044.79 412.016L1054.25 403.933L1063.57 395.552L1072.78 386.881L1081.88 377.933L1090.91 368.72L1099.89 359.256L1108.82 349.56L1117.75 339.648L1126.67 329.541L1135.62 319.261L1144.62 308.83L1153.67 298.273L1162.81 287.613L1172.04 276.875L1181.38 266.086L1190.85 255.272L1200.45 244.457L1210.21 233.669L1220.12 222.932L1230.21 212.272L1240.47 201.713L1250.91 191.278L1261.54 180.988L1272.36 170.865L1283.37 160.925L1294.58 151.185L1305.98 141.662L1317.57 132.369L1329.35 123.322L1341.32 114.534L1353.47 106.02L1365.8 97.7897L1378.31 89.8557L1390.99 82.2279L1403.84 74.9158L1416.84 67.9278L1430 61.2713L1443.31 54.9528L1456.75 48.9778L1470.32 43.3509L1484.02 38.0758L1497.83 33.155L1511.75 28.59L1525.77 24.3818L1539.88 20.5298L1554.08 17.0329L1568.34 13.8888L1582.68 11.0945L1597.07 8.64579L1611.51 6.538L1625.99 4.76531L1640.5 3.32081L1655.05 2.1973L1669.61 1.3863L1684.19 0.878941L1698.78 0.66535L1713.36 0.735094L1727.94 1.07681L1742.52 1.6789L1757.08 2.52891L1771.62 3.61383L1786.15 4.92015L1800.65 6.43401L1815.12 8.1411L1829.57 10.0267L1844 12.0757L1858.39 14.2727L1872.76 16.6025L1887.1 19.0493L1901.41 21.5974L1915.71 24.2313L1929.98 26.935L1944.24 29.6931L1958.49 32.4904L1972.73 35.3116L1986.97 38.1421L2001.22 40.9676L2015.48 43.774L2029.76 46.5483L2044.06 49.2778L2058.4 51.9504L2072.78 54.5551L2087.22 57.0815L2101.71 59.5203L2116.28 61.8632L2130.92 64.1028L2145.65 66.233L2160.47 68.2488L2175.41 70.1466L2190.46 71.9238L2205.63 73.5793L2220.94 75.1136L2236.38 76.5281L2251.98 77.8258L2267.73 79.0116L2283.64 80.0911L2299.72 81.0716L2315.97 81.9619L2332.4 82.7719L2349.01 83.513L2365.8 84.1976L2382.77 84.8394L2399.92 85.4529L2417.26 86.0538L2434.78 86.6582L2452.47 87.2831L2470.34 87.9458L2488.37 88.6639L2506.57 89.4548L2524.92 90.3361L2543.43 91.3246L2562.08 92.4375L2580.86 93.692L2599.77 95.1057L2618.79 96.6978L2637.91 98.4893L2657.12 100.503L2676.39 102.763L2695.7 105.295L2715.04 108.124L2734.37 111.278L2753.66 114.782L2772.9 118.664L2792.04 122.95L2811.06 127.668L2829.92 132.843L2848.58 138.5L2867 144.664L2885.16 151.357L2903 158.6L2920.48 166.413L2937.57 174.813L2954.23 183.815L2970.42 193.432L2986.09 203.676L3001.2 214.553L3015.72 226.07L3029.61 238.229L3042.83 251.029L3055.35 264.467L3067.15 278.536L3078.17 293.227L3088.41 308.528L3097.84 324.423L3106.43 340.895L3114.18 357.922L3121.05 375.483L3127.05 393.551L3132.15 412.1L3136.37 431.1L3139.69 450.519L3142.12 470.325L3143.67 490.483L3144.33 510.959L3144.14 531.715L3143.1 552.715L3141.23 573.921L3138.56 595.294L3135.11 616.797L3130.91 638.392L3126 660.04L3120.41 681.705L3114.18 703.35L3107.35 724.938L3099.97 746.436L3092.08 767.811L3083.72 789.029L3074.96 810.06L3065.84 830.877L3056.42 851.451L3046.74 871.758L3036.87 891.776L3026.86 911.483L3016.78 930.861L3006.67 949.893L2996.59 968.568L2986.61 986.872L2976.77 1004.8L2967.15 1022.34L2957.78 1039.49L2948.73 1056.26L2940.05 1072.63L2931.79 1088.62L2924 1104.24L2916.73 1119.48L2910.01 1134.36L2903.9 1148.9L2898.44 1163.12L2893.66 1177.01L2889.58 1190.62L2886.26 1203.95L2883.7 1217.03L2881.94 1229.89L2880.99 1242.54L2880.86 1255.02L2881.58 1267.35L2883.14 1279.57L2885.55 1291.69L2888.8 1303.76L2892.9 1315.79L2897.83 1327.82L2903.57 1339.88L2910.12 1351.99L2917.44 1364.18L2925.51 1376.49L2934.29 1388.94L2943.77 1401.55L2953.89 1414.34L2964.62 1427.35L2975.91 1440.58L2987.71 1454.06L2999.98 1467.81L3012.66 1481.84L3025.69 1496.16L3039.03 1510.79L3052.61 1525.73L3066.37 1540.99L3080.26 1556.57L3094.19 1572.48L3108.11 1588.7L3121.95 1605.24L3135.63 1622.08L3149.09 1639.22L3162.26 1656.65L3175.07 1674.34L3187.46 1692.28L3199.37 1710.45L3210.73 1728.82L3221.5 1747.38L3231.63 1766.1L3241.06 1784.95L3249.76 1803.91L3257.67 1822.94L3264.76 1842.01L3270.98 1861.09L3276.31 1880.15L3280.7 1899.15L3284.14 1918.06L3286.58 1936.85L3288.01 1955.47L3288.41 1973.89L3287.77 1992.08L3286.08 2010L3283.33 2027.62L3279.51 2044.9L3274.65 2061.82L3268.73 2078.34L3261.77 2094.44L3253.79 2110.08L3244.81 2125.25L3234.86 2139.92L3223.95 2154.07L3212.12 2167.68L3199.4 2180.74L3185.83 2193.23L3171.46 2205.15L3156.31 2216.48L3140.44 2227.23L3123.89 2237.38L3106.71 2246.95L3088.95 2255.92L3070.66 2264.32L3051.89 2272.14L3032.69 2279.4L3013.12 2286.12L2993.21 2292.3L2973.04 2297.98L2952.65 2303.16L2932.08 2307.87L2911.4 2312.14L2890.64 2315.99L2869.86 2319.45L2849.09 2322.55L2828.39 2325.32L2807.8 2327.79L2787.35 2330L2767.08 2331.98L2747.03 2333.76L2727.23 2335.38L2707.71 2336.87L2688.5 2338.27L2669.62 2339.61L2651.1 2340.92L2632.95 2342.24L2615.19 2343.61L2597.84 2345.05L2580.9 2346.59L2564.4 2348.26L2548.32 2350.1L2532.68 2352.13L2517.47 2354.38L2502.7 2356.86L2488.36 2359.6L2474.45 2362.63L2460.96 2365.95L2447.87 2369.6L2435.18 2373.57L2422.87 2377.88L2410.93 2382.55L2399.34 2387.58L2388.09 2392.97L2377.14 2398.74L2366.5 2404.88L2356.12 2411.39L2346 2418.27L2336.1 2425.51L2326.41 2433.11L2316.91 2441.06L2307.56 2449.34L2298.34 2457.95L2289.24 2466.87L2280.22 2476.08L2271.27 2485.56L2262.35 2495.29L2253.45 2505.25L2244.54 2515.41L2235.61 2525.75L2226.62 2536.23L2217.56 2546.83L2208.41 2557.52L2199.15 2568.26L2189.76 2579.02L2180.23 2589.76L2170.54 2600.46L2160.68 2611.06L2150.63 2621.54L2140.39 2631.87L2129.95 2642L2119.29 2651.91L2108.43 2661.57L2097.35 2670.95L2086.06 2680.02L2074.56 2688.76L2062.84 2697.15L2050.92 2705.17L2038.8 2712.79L2026.48 2720L2013.97 2726.78L2001.28 2733.11L1988.42 2738.99L1975.4 2744.4L1962.23 2749.33L1948.92 2753.77L1935.48 2757.73L1921.92 2761.2L1908.27 2764.17L1894.52 2766.65L1880.7 2768.64L1866.81 2770.15L1852.87 2771.17L1838.89 2771.72L1824.89 2771.81L1810.87 2771.45L1796.85 2770.64L1782.84 2769.41L1768.86 2767.76L1754.9 2765.72L1740.99 2763.29L1727.12 2760.5L1713.32 2757.36L1699.58 2753.89L1685.92 2750.11L1672.34 2746.05L1658.84 2741.71L1645.44 2737.12L1632.13 2732.31L1618.92 2727.28L1605.81 2722.06L1592.8 2716.68L1579.89 2711.14L1567.09 2705.47L1554.39 2699.69L1541.79 2693.82L1529.29 2687.87L1516.89 2681.86L1504.59 2675.81L1492.38 2669.73L1480.25 2663.64L1468.2 2657.55L1456.24 2651.47L1444.34 2645.42L1432.51 2639.41L1420.75 2633.45L1409.03 2627.54L1397.37 2621.71L1385.75 2615.94L1374.16 2610.25L1362.61 2604.65L1351.08 2599.13L1339.57 2593.7L1328.07 2588.36L1316.57 2583.12L1305.08 2577.97L1293.58 2572.91L1282.07 2567.93L1270.55 2563.04L1259.02 2558.23L1247.46 2553.49L1235.88 2548.82L1224.27 2544.21Z" fill="#A2E7E4"/>
</svg>
