<svg width="88" height="96" viewBox="0 0 88 96" fill="none" xmlns="http://www.w3.org/2000/svg">
<path d="M0 30.5659C0 27.4764 2.97631 25.2592 5.93654 26.1435L39.8143 36.2632C41.7692 36.8472 43.1087 38.6454 43.1087 40.6857V88.8376C43.1087 91.9271 40.1324 94.1443 37.1722 93.26L3.29446 83.1402C1.33956 82.5563 0 80.7581 0 78.7178V30.5659Z" fill="#FDCE1A"/>
<path d="M44.1702 88.837C44.1702 91.9265 47.1465 94.1436 50.1067 93.2594L83.9844 83.1396C85.9393 82.5556 87.2789 80.7574 87.2789 78.7172V30.5652C87.2789 27.4757 84.3026 25.2585 81.3424 26.1428L47.4646 36.2626C45.5097 36.8466 44.1702 38.6447 44.1702 40.685V88.837Z" fill="#FDCE1A"/>
<circle cx="44.2162" cy="16.9389" r="16.9389" fill="#FDCE1A"/>
</svg>
